<svg viewBox="0 0 184.25 76.58" xmlns="http://www.w3.org/2000/svg" xmlns:xlink="http://www.w3.org/1999/xlink" id="Layer_1" overflow="hidden"><path d="M132.7 62.92C136.58 60.12 141.5 59.48 144.88 63.53L161.57 63.48C164.22 60.53 168.33 59.69 171.8 61.7 174.99 63.54 176.66 67.62 175.26 71.32 173.91 74.88 170.3 77.21 166.32 76.42 162.69 75.7 159.74 72.5 159.85 68.34L146.75 68.34C146.71 72.96 143.24 76.48 138.9 76.57 134.45 76.66 130.8 73.09 130.73 68.38 126.3 67.85 123 64.74 122.38 60.65 121.73 56.36 124.02 52.39 128.24 50.63L119.16 12.84C116.89 12.18 111.08 14.04 110.94 10.34 110.89 9.01 111.83 7.71 113.34 7.68 117.48 7.58 122.79 6.82 123.97 11.6L126.64 22.41 182.09 22.46C183.78 22.46 184.57 24.46 184.15 25.8L177.11 48.57C175.98 52.21 172.84 55.15 168.84 55.16L130.81 55.3C128.27 55.3 126.95 58.05 127.37 60.19 127.72 61.97 130.6 64.45 132.7 62.93ZM140.42 33.61C140.52 31.38 140.58 29.47 140.39 27.38L127.84 27.47 129.33 33.58 140.42 33.61ZM151.46 33.68 151.41 27.38 143.23 27.42C143.23 29.62 143.06 31.65 143.32 33.78L151.46 33.68ZM162.51 33.7 162.43 27.44 154.31 27.38 154.29 33.75 162.52 33.7ZM176.54 33.69 178.4 27.43 165.32 27.37C165.13 29.56 165.17 31.6 165.3 33.78L176.54 33.68ZM140.44 41.18C140.51 39.26 140.55 37.81 140.41 36.25L129.98 36.28C130.29 38.05 130.65 39.58 131.16 41.23L140.44 41.17ZM151.4 41.23C151.49 39.27 151.5 37.91 151.4 36.25L143.24 36.25C143.19 37.96 143.09 39.48 143.31 41.19L151.4 41.24ZM162.45 41.18C162.57 39.32 162.53 37.9 162.47 36.27L154.31 36.25C154.21 37.99 154.2 39.51 154.32 41.25L162.45 41.17ZM174.15 41.17C174.71 39.26 175.36 37.95 175.55 36.26L165.25 36.26C165.2 38 165.14 39.48 165.28 41.2L174.14 41.17ZM151.42 50.42 151.36 43.67 143.28 43.7C143.14 45.96 143.14 48.08 143.28 50.39L151.42 50.42ZM162.47 50.37 162.42 43.71 154.3 43.67 154.3 50.46C154.3 50.46 162.47 50.38 162.47 50.38ZM171.81 48.28C172.72 46.91 172.8 45.31 173.31 43.74L165.27 43.7 165.25 50.28C167.42 50.71 170.39 50.43 171.81 48.29ZM140.47 50.07 140.44 43.94 131.8 43.9 133.33 50.15 140.47 50.07ZM137.77 65.63C135.89 66.2 135.2 68.22 135.87 69.79 136.49 71.23 138.17 72.07 139.63 71.57 141.35 70.99 142.18 69.3 141.69 67.62 141.25 66.1 139.59 65.08 137.77 65.64ZM166.65 65.67C164.87 66.35 164.34 68.33 164.97 69.88 165.56 71.33 167.41 72.08 168.81 71.52 170.51 70.84 171.24 69.21 170.7 67.55 170.2 66.01 168.5 64.95 166.65 65.66Z" fill="#FFFFFF"/><path d="M123.18 75.67C121.35 76.1 119.5 75.8 117.56 75.83L109.56 64.05C108.34 65.03 107.39 66 106.38 67.09L106.31 75.83C104.7 75.88 103.25 75.93 101.56 75.81L101.56 7.13C103.24 6.99 104.69 6.99 106.33 7.13L106.4 61.21 116.07 51.87C117.94 51.75 119.8 51.61 121.76 51.97L112.97 60.67 123.19 75.67Z" fill="#FFFFFF"/><path d="M38.59 51.91C40.2 51.64 41.77 51.76 43.56 51.87L35.63 75.83C33.88 75.89 32.5 75.93 30.89 75.81L25.51 59.58 20.03 75.81C18.44 75.91 17.13 75.92 15.56 75.81L7.52 51.98C9.26 51.61 10.89 51.83 12.73 51.84L18 69.24 23.73 51.81 27.74 51.79 33.41 69.33 38.58 51.93Z" fill="#FFFFFF"/><path d="M27.14 37.91C30.63 38.7 33.94 37.49 36.58 35.22 37.74 35.84 38.51 37.01 39.24 38.16 36.46 41.29 32.6 42.3 28.6 42.35 22.64 42.42 17.72 38.59 16.57 32.73 16.11 30.4 16.09 28.22 16.66 25.9 18.09 20.08 23.22 16.43 29.24 16.82 36.69 17.3 40.19 24.18 39.91 31.05L21.22 31.14C21.34 34.5 23.74 37.16 27.14 37.93ZM34.92 27.36C34.76 24.04 32.53 21.3 29.27 20.96 25.13 20.53 21.41 23.13 21.21 27.37L34.91 27.37Z" fill="#FFFFFF"/><path d="M56.64 72.2C60.08 72.87 63.22 71.65 65.79 69.44 66.88 70.17 67.64 71.18 68.62 72.13 66.03 75.28 62.07 76.48 58.14 76.58 50.7 76.77 45.46 71.14 45.41 63.84 45.36 57.2 49.77 51.57 56.49 51.07 61.41 50.7 65.66 52.98 67.65 57.55 68.69 59.94 69.31 62.57 69.06 65.27L50.49 65.27C50.35 68.68 53.13 71.53 56.63 72.21ZM64.18 61.57C64.03 59.22 62.98 57.61 61.54 56.31 60.44 55.45 59.19 55.29 57.78 55.19 53.97 54.93 50.5 57.65 50.42 61.62L64.17 61.57Z" fill="#FFFFFF"/><path d="M83.69 72.11C87.26 72.98 90.67 71.78 93.26 69.43 94.36 70.28 95.13 71.13 96.04 72.25 93.35 75.39 89.19 76.61 85.17 76.57 77.95 76.51 73.13 71.15 72.93 64.14 72.74 57.35 77.17 51.48 84.12 51.05 88.54 50.78 92.46 52.56 94.64 56.51 96.09 59.14 96.71 62.16 96.66 65.2L77.97 65.3C78 68.69 80.39 71.3 83.69 72.1ZM91.67 61.57C91.4 58.09 89.14 55.59 86.1 55.21 81.84 54.68 77.98 57.3 77.98 61.65L91.66 61.57Z" fill="#FFFFFF"/><path d="M64.29 38.8C62.28 35.53 63.01 31.17 65.68 28.64 69.14 25.35 74.87 26.2 79.09 26.29 80.27 24.48 78.32 21.54 76.05 21.17 70.99 20.33 70.39 21.32 66.39 22.99 65.68 21.88 64.84 20.96 64.36 19.73 68.24 16.56 75.93 15.79 80.06 18.13 82.47 19.49 84.03 21.91 84.04 24.8L84.09 41.52C82.56 41.63 81.22 41.63 79.71 41.52 79.42 40.79 79.7 40.13 79.27 39.29 75.75 43.09 67.26 43.61 64.29 38.78ZM79.23 34.15C79.75 32.73 79.26 31.49 79.35 30.29 76.03 29.82 69.37 28.92 68.18 32.95 67.73 34.48 67.67 36.26 69.15 37.33 72.45 39.73 77.77 38.14 79.23 34.15Z" fill="#FFFFFF"/><path d="M133 20.08 128.97 5.32C128.86 4.17 129.63 3.19 130.78 2.97L141.32 0.13C142.52-0.11 143.52 0.38 143.91 1.55L148.8 19.96 133 20.08Z" fill="#16B0E7"/><path d="M163.88 20 151.34 20.05C150.46 16.63 149.26 13.37 148.71 9.85 148.3 7.23 148.75 4.58 148.59 1.94 148.52 0.83 149.43 0 150.46 0L162.22 0.03C163.08 0.03 163.84 0.72 163.85 1.62L163.88 20Z" fill="#16B0E7"/><path d="M59.02 36.51C59.88 37.42 60.48 38.33 61.16 39.47 58.56 42.91 51.52 43.24 48.91 40.36 47.52 38.83 47 36.72 46.98 34.63L46.88 21.72 42.74 21.53C42.66 20.12 42.58 18.79 42.78 17.5 44.27 17.42 45.49 17.63 46.87 17.38L46.97 9.76C48.5 9.64 50.02 9.65 51.68 9.76L51.82 17.45 58.68 17.54C58.78 18.88 58.87 20.15 58.6 21.5L51.79 21.64 51.84 34.61C51.84 35.89 52.51 37.32 53.66 37.82 55.49 38.62 57.43 38.02 59.04 36.51Z" fill="#FFFFFF"/><path d="M181.27 20.01 166.32 20.05 166.28 9.24C166.28 7.94 167.29 7 168.56 7.07L179.3 7.12C180.39 7.24 181.2 7.82 181.26 8.94L181.26 20.01Z" fill="#16B0E7"/><path d="M4.85 41.51C3.17 41.68 1.68 41.61 0.05 41.54L0.01 17.57C1.54 17.45 2.94 17.47 4.47 17.57 4.98 18.56 4.49 19.55 4.91 20.77 7.51 17.76 11.33 16.34 15.15 17.59 14.96 19.1 14.52 20.43 14.16 21.92 12.71 22.02 11.36 21.6 9.9 22 7.08 22.76 4.97 25.39 4.95 28.35L4.86 41.51Z" fill="#FFFFFF"/><path d="M95.22 41.5C93.59 41.69 92.15 41.61 90.38 41.54L90.34 17.64C91.99 17.39 93.51 17.48 95.21 17.58L95.21 41.5Z" fill="#FFFFFF"/><path d="M95.45 13.52C93.53 13.7 91.87 13.69 90.07 13.52 89.93 11.59 89.93 9.84 90.07 8.03 91.97 8.07 93.59 7.89 95.37 8.15 95.59 9.91 95.49 11.51 95.45 13.52Z" fill="#FFFFFF"/></svg>